<svg width="329.26933" height="329" xmlns="http://www.w3.org/2000/svg">

 <g>
  <title>Layer 1</title>
  <path stroke="null" id="svg_1" d="m178.95129,164.50116l60.84822,-60.85007c3.9599,-3.95805 3.9599,-10.35766 0,-14.3157c-3.95804,-3.95805 -10.35766,-3.95805 -14.3157,0l-60.85007,60.85007l-60.84822,-60.85007c-3.9599,-3.95805 -10.35765,-3.95805 -14.3157,0c-3.9599,3.95804 -3.9599,10.35765 0,14.3157l60.84822,60.85007l-60.84822,60.85007c-3.9599,3.95804 -3.9599,10.35765 0,14.3157c1.97253,1.97438 4.56612,2.96622 7.15785,2.96622c2.59173,0 5.18346,-0.99183 7.15785,-2.96622l60.84822,-60.85007l60.85007,60.85007c1.97438,1.97438 4.56612,2.96622 7.15785,2.96622c2.59173,0 5.18346,-0.99183 7.15785,-2.96622c3.9599,-3.95805 3.9599,-10.35766 0,-14.3157l-60.84822,-60.85007zm0,0"/>
 </g>
</svg>