<?xml version="1.0" encoding="UTF-8" standalone="no"?>
<!DOCTYPE svg PUBLIC "-//W3C//DTD SVG 1.1//EN" "http://www.w3.org/Graphics/SVG/1.1/DTD/svg11.dtd">
<svg version="1.1" xmlns="http://www.w3.org/2000/svg" xmlns:xlink="http://www.w3.org/1999/xlink" preserveAspectRatio="xMidYMid meet" viewBox="0 0 640 640" width="640" height="640"><defs><path d="" id="b10wBGDLQe"></path><path d="M138.63 179.36C100.97 212.7 70.1 240.16 70 240.35C69.86 240.73 95.47 269.75 95.99 269.75C96.18 269.75 115.29 252.96 138.49 232.38C161.68 211.84 210.34 168.78 246.52 136.72C282.76 104.61 314.16 76.82 316.34 74.97C316.6 74.74 317.89 73.59 320.23 71.51C387.33 130.98 424.6 164.02 432.06 170.63C493.62 225.12 544.18 269.7 544.41 269.7C544.7 269.7 550.63 263.16 557.65 255.19C566.94 244.62 570.31 240.54 569.98 240.06C569.74 239.73 513.78 190.08 445.67 129.7C336.35 32.95 321.55 20 320.23 19.96C318.8 19.91 313.3 24.7 262.89 69.33C232.25 96.46 176.33 145.97 138.63 179.36Z" id="b2U4yjdY6T"></path><path d="M144.37 145.21C145.31 144.36 145.83 143.88 145.93 143.79C147.4 142.36 206.64 88.96 206.83 88.87C206.83 88.82 207.07 80.33 207.25 69.94C207.28 68.69 207.39 62.41 207.59 51.12L175.95 51.12L144.37 51.12L144.37 98.16L144.37 145.21Z" id="b13jH56MXH"></path><path d="M211.18 272.07C188.58 292.08 170.06 308.56 170 308.67C169.91 308.9 185.28 326.31 185.59 326.31C185.71 326.31 197.18 316.24 211.09 303.89C225.01 291.57 254.2 265.73 275.91 246.49C297.66 227.23 316.49 210.55 317.8 209.44C317.96 209.3 318.74 208.61 320.14 207.36C360.4 243.05 382.76 262.87 387.24 266.84C424.17 299.54 454.51 326.28 454.65 326.28C454.82 326.28 458.38 322.36 462.59 317.58C468.17 311.23 470.19 308.78 469.99 308.5C469.84 308.3 436.27 278.51 395.4 242.28C329.81 184.23 320.93 176.46 320.14 176.43C319.28 176.4 315.98 179.28 285.73 206.06C267.35 222.33 233.8 252.04 211.18 272.07Z" id="e9YcmfIp4"></path><path d="M94.74 308.72L185.41 308.72L185.41 326.31L94.74 326.31L94.74 308.72Z" id="chWMnoa2q"></path><path d="M455 308.72L545.68 308.72L545.68 326.31L455 326.31L455 308.72Z" id="e15Z0Af8iz"></path></defs><g><g><g><g><use xlink:href="#b10wBGDLQe" opacity="1" fill-opacity="0" stroke="#000000" stroke-width="1" stroke-opacity="1"></use></g></g><g><g><g><use xlink:href="#b2U4yjdY6T" opacity="1" fill="#000000" fill-opacity="1"></use><g><use xlink:href="#b2U4yjdY6T" opacity="1" fill-opacity="0" stroke="#000000" stroke-width="1" stroke-opacity="0"></use></g></g><g><use xlink:href="#b13jH56MXH" opacity="1" fill="#000000" fill-opacity="1"></use><g><use xlink:href="#b13jH56MXH" opacity="1" fill-opacity="0" stroke="#000000" stroke-width="1" stroke-opacity="0"></use></g></g></g><g><g><use xlink:href="#e9YcmfIp4" opacity="1" fill="#000000" fill-opacity="1"></use><g><use xlink:href="#e9YcmfIp4" opacity="1" fill-opacity="0" stroke="#000000" stroke-width="1" stroke-opacity="0"></use></g></g><g><use xlink:href="#chWMnoa2q" opacity="1" fill="#000000" fill-opacity="1"></use></g><g><use xlink:href="#e15Z0Af8iz" opacity="1" fill="#000000" fill-opacity="1"></use></g></g></g></g></g></svg>