<svg width="640" height="640" xmlns="http://www.w3.org/2000/svg" xmlns:xlink="http://www.w3.org/1999/xlink" version="1.1" preserveAspectRatio="xMidYMid meet">
 <defs>
  <path id="b10wBGDLQe"/>
  <path d="m138.63,179.36c-37.66,33.34 -68.53,60.8 -68.63,60.99c-0.14,0.38 25.47,29.4 25.99,29.4c0.19,0 19.3,-16.79 42.5,-37.37c23.19,-20.54 71.85,-63.6 108.03,-95.66c36.24,-32.11 67.64,-59.9 69.82,-61.75c0.26,-0.23 1.55,-1.38 3.89,-3.46c67.1,59.47 104.37,92.51 111.83,99.12c61.56,54.49 112.12,99.07 112.35,99.07c0.29,0 6.22,-6.54 13.24,-14.51c9.29,-10.57 12.66,-14.65 12.33,-15.13c-0.24,-0.33 -56.2,-49.98 -124.31,-110.36c-109.32,-96.75 -124.12,-109.7 -125.44,-109.74c-1.43,-0.05 -6.93,4.74 -57.34,49.37c-30.64,27.13 -86.56,76.64 -124.26,110.03z" id="b2U4yjdY6T"/>
  <path d="m144.37,145.21c0.94,-0.85 1.46,-1.33 1.56,-1.42c1.47,-1.43 60.71,-54.83 60.9,-54.92c0,-0.05 0.24,-8.54 0.42,-18.93c0.03,-1.25 0.14,-7.53 0.34,-18.82l-31.64,0l-31.58,0l0,47.04l0,47.05z" id="b13jH56MXH"/>
  <path d="m211.18,272.07c-22.6,20.01 -41.12,36.49 -41.18,36.6c-0.09,0.23 15.28,17.64 15.59,17.64c0.12,0 11.59,-10.07 25.5,-22.42c13.92,-12.32 43.11,-38.16 64.82,-57.4c21.75,-19.26 40.58,-35.94 41.89,-37.05c0.16,-0.14 0.94,-0.83 2.34,-2.08c40.26,35.69 62.62,55.51 67.1,59.48c36.93,32.7 67.27,59.44 67.41,59.44c0.17,0 3.73,-3.92 7.94,-8.7c5.58,-6.35 7.6,-8.8 7.4,-9.08c-0.15,-0.2 -33.72,-29.99 -74.59,-66.22c-65.59,-58.05 -74.47,-65.82 -75.26,-65.85c-0.86,-0.03 -4.16,2.85 -34.41,29.63c-18.38,16.27 -51.93,45.98 -74.55,66.01z" id="e9YcmfIp4"/>
  <path d="m94.74,308.72l90.67,0l0,17.59l-90.67,0l0,-17.59z" id="chWMnoa2q"/>
  <path d="m455,308.72l90.68,0l0,17.59l-90.68,0l0,-17.59z" id="e15Z0Af8iz"/>
 </defs>
 <g>
  <title>Layer 1</title>
  <ellipse ry="313" rx="313" id="svg_25" cy="320" cx="320" opacity="NaN" stroke-width="0" stroke="#000" fill="#000000"/>
  <g stroke="null" id="svg_1">
   <g stroke="null" id="svg_2">
    <g stroke="null" id="svg_3">
     <g stroke="null" id="svg_4">
      <use stroke="#fff" transform="matrix(1.006 0 0 1.006 -1.91999 8.2602)" xlink:href="#b10wBGDLQe" fill-opacity="0" id="svg_5" y="86.14358" x="-0.00065"/>
     </g>
    </g>
    <g stroke="null" id="svg_6">
     <g stroke="null" id="svg_7">
      <g stroke="null" id="svg_8">
       <use stroke="null" transform="matrix(1.006 0 0 1.006 -1.91999 8.2602)" xlink:href="#b2U4yjdY6T" fill="#fff" id="svg_9" y="86.14358" x="-0.00065"/>
       <g stroke="null" id="svg_10">
        <use stroke="#fff" transform="matrix(1.006 0 0 1.006 -1.91999 8.2602)" xlink:href="#b2U4yjdY6T" fill-opacity="0" stroke-opacity="0" id="svg_11" y="86.14358" x="-0.00065"/>
       </g>
      </g>
      <g stroke="null" id="svg_12">
       <use stroke="null" transform="matrix(1.006 0 0 1.006 -1.91999 8.2602)" xlink:href="#b13jH56MXH" fill="#fff" id="svg_13" y="86.14358" x="-0.00065"/>
       <g stroke="null" id="svg_14">
        <use stroke="#fff" transform="matrix(1.006 0 0 1.006 -1.91999 8.2602)" xlink:href="#b13jH56MXH" fill-opacity="0" stroke-opacity="0" id="svg_15" y="86.14358" x="-0.00065"/>
       </g>
      </g>
     </g>
     <g stroke="null" id="svg_16">
      <g stroke="null" id="svg_17">
       <use stroke="null" transform="matrix(1.006 0 0 1.006 -1.91999 8.2602)" xlink:href="#e9YcmfIp4" fill="#fff" id="svg_18" y="86.14358" x="-0.00065"/>
       <g stroke="null" id="svg_19">
        <use stroke="#fff" transform="matrix(1.006 0 0 1.006 -1.91999 8.2602)" xlink:href="#e9YcmfIp4" fill-opacity="0" stroke-opacity="0" id="svg_20" y="86.14358" x="-0.00065"/>
       </g>
      </g>
      <g stroke="null" id="svg_21">
       <use stroke="null" transform="matrix(1.006 0 0 1.006 -1.91999 8.2602)" xlink:href="#chWMnoa2q" fill="#fff" id="svg_22" y="86.14358" x="-0.00065"/>
      </g>
      <g stroke="null" id="svg_23">
       <use stroke="null" transform="matrix(1.006 0 0 1.006 -1.91999 8.2602)" xlink:href="#e15Z0Af8iz" fill="#fff" id="svg_24" y="86.14358" x="-0.00065"/>
      </g>
     </g>
    </g>
   </g>
  </g>
 </g>
</svg>