<svg width="1489" height="1251" xmlns="http://www.w3.org/2000/svg" preserveAspectRatio="xMidYMid meet" version="1.0">
 <g>
  <title>Layer 1</title>
  <path fill="#9ca3af" id="svg_2" d="m729.33334,10.59998c-5.2,1.9 -14.2,5.1 -20,7.1c-5.8,1.9 -12.3,4.4 -14.5,5.4c-2.3,0.9 -5.4,2.1 -7,2.5c-1.7,0.4 -3.4,1 -4,1.4c-0.5,0.4 -2.8,1.3 -5,1.9c-2.2,0.7 -4.9,1.7 -6,2.2c-1.1,0.5 -5.8,2.2 -10.5,3.8c-4.7,1.6 -11.6,4.2 -15.5,5.6c-3.8,1.5 -13.1,4.9 -20.5,7.5c-26.3,9.3 -39.5,14.2 -42.5,15.5c-1.6,0.7 -4.3,1.7 -6,2.1c-1.6,0.4 -5.7,1.8 -9,3.1c-3.3,1.4 -11.2,4.2 -17.5,6.4c-6.3,2.2 -12.3,4.4 -13.2,4.9c-1,0.6 -2.6,1 -3.6,1c-1,0 -2.2,0.4 -2.8,0.9c-0.5,0.5 -4.3,2.1 -8.4,3.6c-4.1,1.4 -12.4,4.5 -18.5,6.6c-6,2.2 -12.8,4.6 -15,5.3c-2.2,0.8 -8.5,3.1 -14,5.1c-5.5,2 -13.4,5 -17.5,6.5c-4.1,1.5 -8.8,3.2 -10.3,3.9c-1.6,0.6 -3.2,1.1 -3.7,1.1c-0.5,0 -4.4,1.4 -8.7,3.1c-8.6,3.4 -48.3,17.9 -57.8,21.1c-3.3,1.1 -6.9,2.4 -8,2.9c-1.1,0.5 -6.9,2.7 -13,4.8c-6,2.1 -17.3,6.2 -25,9.1c-7.7,2.8 -18.5,6.7 -24,8.6c-5.5,1.9 -11.3,4.1 -13,4.8c-1.6,0.8 -5,2 -7.5,2.7c-2.5,0.7 -4.9,1.6 -5.5,1.9c-0.5,0.4 -2.8,1.3 -5,1.9c-2.2,0.7 -4.9,1.6 -6,2.1c-1.1,0.5 -6.7,2.5 -12.5,4.6c-5.8,2 -11.4,4 -12.5,4.5c-1.1,0.4 -4.7,1.8 -8,3c-3.3,1.1 -10.9,3.9 -17,6.2c-6,2.2 -14.4,5.2 -18.5,6.7c-4.1,1.5 -8.2,3 -9,3.3c-2.9,1.2 -21.6,7.9 -28.5,10.3c-3.8,1.2 -10.1,3.5 -14,4.9c-14.4,5.4 -34.3,12.7 -44,16.1c-5.5,2 -10.9,3.9 -12,4.4c-1.1,0.5 -4.2,1.6 -7,2.5c-2.7,1 -6.3,2.3 -8,3c-1.6,0.7 -4.1,1.6 -5.5,2c-1.4,0.3 -3.4,1 -4.5,1.5c-1.1,0.5 -7.8,3 -15,5.5c-24.3,8.7 -27,9.6 -28.5,10.4c-1.3,0.7 -1.5,5.7 -1.5,35.7l0,34.9l2.4,0.3c2.4,0.4 10.7,-1.5 12.6,-2.8c0.6,-0.4 6.8,-2.8 14,-5.3c7.2,-2.5 18.6,-6.6 25.5,-9.2c6.9,-2.5 16.6,-6 21.5,-7.7c5,-1.6 10.4,-3.6 12.2,-4.4c1.7,-0.8 8,-3.1 14,-5.3c24.7,-8.7 31.9,-11.3 33.8,-12.2c1.1,-0.5 7,-2.6 13,-4.8c6.1,-2.1 18.5,-6.6 27.8,-10c31.4,-11.5 48.6,-17.7 55.7,-20.1c3,-1 9.6,-3.4 14.5,-5.3c5,-1.9 11.9,-4.4 15.5,-5.6c3.6,-1.2 7.4,-2.6 8.5,-3.1c1.1,-0.6 5.8,-2.3 10.5,-4c4.7,-1.7 14.1,-5.1 21,-7.6c6.9,-2.5 17.2,-6.1 23,-8.1c5.8,-1.9 11,-3.9 11.5,-4.3c0.6,-0.4 2.8,-1.3 5,-2c2.2,-0.6 5.4,-1.8 7,-2.5c1.7,-0.7 4.4,-1.7 6,-2.1c1.7,-0.4 3.5,-1 4,-1.4c0.6,-0.4 5.5,-2.2 11,-4c5.5,-1.8 10.5,-3.6 11,-4c0.6,-0.4 2.8,-1.3 5,-1.9c2.2,-0.7 4.9,-1.6 6,-2.1c1.1,-0.5 4,-1.7 6.5,-2.5c20.6,-7.2 46.5,-16.6 48.5,-17.5c1.1,-0.6 6.3,-2.5 11.5,-4.3c5.2,-1.9 15.4,-5.5 22.5,-8.1c7.2,-2.6 13.9,-5 15,-5.3c1.1,-0.3 3.9,-1.4 6.2,-2.4c2.4,-1 4.6,-1.9 4.9,-1.9c0.7,0 24.5,-8.6 28.9,-10.5c1.7,-0.7 4.1,-1.6 5.5,-2c2.6,-0.7 14.9,-5 18.5,-6.5c8.5,-3.4 18.7,-7 19.9,-7c0.8,0 1.7,-0.4 2.1,-0.9c0.3,-0.5 2,-1.3 3.8,-1.7c1.7,-0.3 4.5,-1.3 6.2,-2c1.6,-0.7 8.9,-3.4 16,-6c7.2,-2.5 14.6,-5.2 16.5,-5.9c1.9,-0.8 7.6,-2.8 12.5,-4.5c5,-1.8 10.4,-3.8 12,-4.5c1.7,-0.7 8.6,-3.2 15.5,-5.5c6.9,-2.3 13.4,-4.6 14.5,-5c9.7,-3.9 17.7,-7 21,-8c4.1,-1.2 4.9,-1.5 12.2,-4.5c3.5,-1.5 4.7,-1.5 8,-0.5c2.1,0.7 4.2,1.5 4.7,1.8c0.6,0.3 5.7,2.2 11.5,4.2c5.8,2.1 14.2,5.1 18.6,6.8c4.4,1.7 11.4,4.2 15.5,5.7c4.1,1.5 9.1,3.3 11,4c1.9,0.8 7.6,2.8 12.5,4.5c5,1.8 9.9,3.6 11,4c1.1,0.4 4.9,1.8 8.5,3c3.6,1.3 7.9,2.9 9.5,3.6c1.7,0.6 5,1.9 7.5,2.7c4.6,1.6 11.1,4 21,7.7c3,1.1 8,2.9 11,4c3,1 9.3,3.3 14,5c16.1,5.9 21.5,7.8 32,11.5c5.8,2 10.9,4.1 11.4,4.6c0.6,0.5 2,0.9 3.2,0.9c1.3,0 2.5,0.4 2.9,0.9c0.3,0.5 2,1.3 3.8,1.6c1.7,0.4 4.6,1.3 6.2,2c3.3,1.5 16.4,6.2 69,25c8.8,3.1 19.8,7.2 24.5,9c4.7,1.8 11.2,4.2 14.6,5.3c5.7,2 12.4,4.4 16.9,6.2c1.1,0.4 11,4 22,8c11,3.9 21.8,7.8 24,8.7c7.2,2.8 7.9,3 18.5,6.8c15.2,5.3 21.3,7.5 23.2,8.6c1,0.5 2.3,0.9 2.9,0.9c0.6,0 2.5,0.6 4.2,1.4c1.8,0.7 14.2,5.3 27.7,10.1c30.6,11 30.1,10.8 38.5,14c6.3,2.4 29.1,10.6 43.5,15.7c3,1 6.9,2.6 8.7,3.4c1.7,0.7 3.8,1.4 4.6,1.4c0.9,0 1.8,0.4 2.1,0.9c0.3,0.4 2.7,1.4 5.3,2.1c2.7,0.7 6.2,1.9 7.8,2.6c1.7,0.7 5,2 7.5,2.8c10,3.4 13.6,4.7 15.5,5.5c1.1,0.5 3.6,1.5 5.5,2.1c1.9,0.7 7.1,2.5 11.5,4.2c4.4,1.6 9.8,3.5 12,4.3c2.2,0.7 6.5,2.3 9.5,3.5c3,1.2 7.8,2.9 10.5,3.7c2.8,0.9 5.5,1.9 6,2.3c0.6,0.4 2.4,1 4,1.4c1.7,0.4 4.4,1.4 6,2.1c4.5,2 16.9,6.5 17.9,6.5c0.4,0 2.4,0.7 4.4,1.6c8,3.4 10,4.1 18,6.4c6.2,1.8 8.8,2.1 10,1.3c1.5,-0.9 1.7,-4.2 1.7,-35.3l0,-34.2l-5,-1.9c-2.7,-1.1 -5.9,-2.4 -7,-2.9c-1.1,-0.5 -7.6,-2.8 -14.5,-5.1c-6.9,-2.3 -12.9,-4.5 -13.5,-4.9c-0.5,-0.4 -2.1,-1.1 -3.5,-1.5c-3.6,-1 -37.6,-13.3 -43,-15.5c-4.4,-1.8 -14.9,-5.6 -24,-8.6c-7.7,-2.6 -21.4,-7.6 -24.5,-8.9c-1.6,-0.7 -10.4,-3.9 -19.5,-7c-9.1,-3.2 -16.9,-6.2 -17.5,-6.6c-0.5,-0.4 -3.7,-1.5 -7,-2.4c-3.3,-1 -6.7,-2.1 -7.5,-2.6c-0.8,-0.4 -4.9,-2 -9,-3.4c-4.1,-1.5 -9.7,-3.5 -12.5,-4.5c-6.3,-2.3 -29.2,-10.6 -36.5,-13.2c-3,-1 -6.9,-2.6 -8.7,-3.4c-1.7,-0.7 -3.8,-1.4 -4.6,-1.4c-0.9,0 -1.8,-0.4 -2.1,-0.9c-0.3,-0.4 -2.7,-1.4 -5.3,-2.1c-2.7,-0.7 -6.1,-1.9 -7.8,-2.6c-1.6,-0.7 -5,-2 -7.5,-2.8c-10.4,-3.5 -13.6,-4.7 -15.5,-5.6c-1.1,-0.5 -6.5,-2.5 -12,-4.4c-5.5,-1.9 -14.5,-5.2 -20,-7.2c-5.5,-2 -12.5,-4.5 -15.5,-5.5c-3,-1.1 -6.4,-2.3 -7.5,-2.8c-1.1,-0.6 -3.1,-1.3 -4.5,-1.6c-1.4,-0.4 -3.8,-1.3 -5.5,-2c-1.6,-0.7 -6.4,-2.5 -10.5,-4c-4.1,-1.4 -9.7,-3.5 -12.5,-4.5c-4.7,-1.8 -9,-3.3 -32.5,-11.7c-5.2,-1.8 -10.8,-4 -12.5,-4.7c-1.6,-0.8 -4.6,-1.9 -6.5,-2.4c-4.4,-1.4 -11.9,-4 -14.5,-5.2c-1.1,-0.4 -6,-2.3 -11,-4.1c-4.9,-1.7 -11.8,-4.2 -15.2,-5.5c-3.4,-1.3 -6.5,-2.4 -7,-2.4c-0.4,0 -4.8,-1.5 -9.8,-3.4c-4.9,-1.9 -17.3,-6.5 -27.5,-10.2c-10.2,-3.7 -22.1,-8 -26.5,-9.6c-4.4,-1.7 -9.3,-3.4 -11,-3.9c-1.6,-0.5 -3.9,-1.3 -5,-1.8c-1.1,-0.5 -4.9,-1.9 -8.5,-3.1c-3.6,-1.2 -7.8,-2.8 -9.5,-3.5c-1.6,-0.8 -6.6,-2.5 -11,-4c-4.4,-1.5 -9.3,-3.3 -11,-4c-1.6,-0.8 -5.2,-2.1 -8,-3c-2.7,-0.9 -9.7,-3.3 -15.5,-5.4c-5.8,-2.2 -15.7,-5.8 -22,-8.1c-6.3,-2.2 -12.4,-4.5 -13.5,-4.9c-2.4,-1 -13.9,-5.2 -22,-8.1c-3.3,-1.2 -11.6,-4.1 -18.4,-6.6c-6.7,-2.4 -13.5,-4.4 -15,-4.4c-1.4,0.1 -6.9,1.7 -12.1,3.6z"/>
  <path fill="#f59e0b" id="svg_3" d="m711.60001,129.49998c-1.5,0.8 -3.2,1.5 -3.6,1.5c-0.5,0 -2.1,0.5 -3.7,1.2c-1.5,0.6 -3.2,1.2 -3.8,1.2c-0.5,0.1 -2.6,0.9 -4.5,1.8c-1.9,0.9 -7.1,2.8 -11.5,4.2c-4.4,1.5 -8.9,3.1 -10,3.6c-4.2,2 -18.5,6.9 -18.5,6.4c0,-0.4 -1,0 -2.2,0.8c-1.3,0.8 -5.2,2.5 -8.8,3.7c-3.6,1.3 -7.8,2.9 -9.5,3.6c-3.5,1.5 -10.8,3.8 -11.5,3.8c-0.3,-0.1 -1.3,0.3 -2.2,0.8c-1.7,0.9 -1.8,19.5 -1.8,368.70001c0,292.7 -0.3,368.20001 -1.2,369.50001c-1.2,1.6 -7.4,1.7 -87.8,1.5l-86.5,-0.3l-0.5,-335.5l-0.5,-335.5l-3.7,-0.3c-3.9,-0.3 -7.7,0.8 -19.7,5.7c-4.1,1.6 -8.7,3.3 -10.2,3.6c-1.6,0.4 -3.1,1.1 -3.4,1.6c-0.4,0.5 -1.4,0.9 -2.3,0.9c-1.8,0 -12.8,4.2 -13.9,5.4c-0.3,0.3 -1.2,0.6 -1.9,0.6c-0.7,0 -3.8,0.9 -6.9,2.1l-5.5,2l0,323.8c0,271.8 -0.2,324 -1.4,325c-1,0.8 -24.6,1 -87.2,0.9l-85.9,-0.3l-0.5,-291l-0.5,-291l-3.8,-0.3c-2.5,-0.2 -7,0.8 -12.5,2.8c-4.8,1.8 -9.4,3.3 -10.2,3.5c-0.8,0.2 -3.3,1.1 -5.5,2c-4.7,2.1 -24.5,9.2 -29.5,10.7c-1.9,0.5 -4.1,1.5 -4.7,2c-1,0.8 -1.3,63.8 -1.3,308.9l0,307.9l276.9,0c167,0 277.2,-0.4 277.5,-0.9c0.4,-0.5 0.6,-168.2 0.6,-372.50001l0,-371.60001l2.2,-1c1.3,-0.5 6.8,-2.5 12.3,-4.5c5.5,-2 12.5,-4.7 15.5,-5.9l5.5,-2.3l0,-34.9l0,-34.9l-4.5,-0.3c-2.6,-0.1 -5.7,0.4 -7.4,1.3z"/>
  <path fill="#9ca3af" id="svg_4" d="m762.50001,129.09998c-0.3,0.8 -0.4,16.6 -0.3,35.3l0.3,33.8l8.5,3.3c4.7,1.8 12.7,4.8 17.7,6.7l9.3,3.3l0,231.3l0,231.2l33.8,-0.2l33.7,-0.3l0.3,-253.8c0.1,-150.1 -0.2,-254.5 -0.7,-255.5c-0.5,-0.9 -3.1,-2.3 -5.8,-3.1c-2.6,-0.8 -6.1,-2 -7.6,-2.8c-1.6,-0.8 -3.6,-1.6 -4.5,-1.8c-1,-0.2 -5.5,-1.8 -10.2,-3.5c-4.7,-1.8 -15.2,-5.6 -23.5,-8.6c-8.2,-3 -15.9,-5.8 -17,-6.3c-1.1,-0.5 -7.1,-2.8 -13.4,-5.1c-12.6,-4.8 -19.7,-6.1 -20.6,-3.9z"/>
  <path fill="#9ca3af" id="svg_5" d="m909.00001,179.99998l-3.5,0.5l-0.3,246.7l-0.2,246.8l102,0l102,0l0.5,-2.3c0.3,-1.2 0.4,-96 0.3,-210.6l-0.3,-208.5l-6,-2.3c-3.3,-1.3 -6.9,-2.8 -8,-3.3c-1.1,-0.5 -6.3,-2.3 -11.5,-4.1c-5.2,-1.7 -9.9,-3.5 -10.5,-4c-0.5,-0.5 -1.6,-0.9 -2.5,-0.9c-0.8,0 -2.6,-0.6 -4,-1.3c-1.4,-0.7 -5.2,-2.1 -8.5,-3.1c-3.3,-1 -6.4,-2.2 -7,-2.6c-0.5,-0.3 -3,-1.3 -5.5,-2c-2.5,-0.7 -4.9,-1.7 -5.5,-2.1c-0.5,-0.3 -3.2,-1.3 -6,-2.2c-6.2,-1.9 -21,-7.3 -25,-9.1c-1.6,-0.8 -4.1,-1.7 -5.5,-2.1c-1.4,-0.4 -3.8,-1.3 -5.5,-2c-1.6,-0.7 -7.3,-2.7 -12.5,-4.5c-5.2,-1.7 -10.8,-3.8 -12.5,-4.5c-1.6,-0.7 -4.3,-1.8 -6,-2.3c-1.6,-0.6 -6.1,-2.2 -10,-3.7c-3.8,-1.4 -8.1,-3 -9.5,-3.5c-1.4,-0.5 -6.3,-2.3 -11,-4c-4.7,-1.7 -9.9,-3.6 -11.7,-4.1c-1.8,-0.5 -3.5,-1.4 -3.8,-1.9c-0.4,-0.6 -1.6,-1 -2.8,-1c-1.3,0 -3.1,-0.6 -4.2,-1.3c-1.2,-0.8 -3.4,-1.1 -5.5,-0.7zm61,82.1c3,1 11.1,3.9 18,6.4c20.3,7.5 36.9,13.5 46.5,17c5,1.8 11.3,4.1 14,5.1l5,2l0.3,163.2l0.2,163.2l-46.2,-0.2l-46.3,-0.3l-0.3,-179.9c-0.2,-171 -0.1,-179.8 1.5,-179.1c1,0.4 4.3,1.6 7.3,2.6z"/>
  <path fill="#9ca3af" id="svg_6" d="m1149.20002,270.19999c-0.9,1.2 -1.1,46.1 -1,202.4l0.3,200.9l101.9,0.3c80.9,0.2 102.1,0 102.8,-1c0.4,-0.7 0.8,-75.4 0.8,-165.9c0,-133.9 -0.2,-164.9 -1.3,-165.7c-1.4,-1.2 -16.6,-7.2 -25.7,-10.2c-3,-1 -16.7,-5.9 -30.5,-10.8c-13.7,-5 -29.5,-10.7 -35,-12.6c-5.5,-2 -10.9,-4 -12,-4.5c-1.1,-0.5 -7.2,-2.7 -13.5,-4.9c-22.9,-8 -48.6,-17.3 -51,-18.4c-1.4,-0.6 -3,-1.2 -3.6,-1.4c-2.1,-0.4 -18.9,-6.5 -20.7,-7.5c-3.3,-1.8 -10.2,-2.2 -11.5,-0.7zm59.6,77.7c1.6,0.9 4.1,1.8 5.2,1.9c0.3,0 3,1 6,2.2c3,1.2 9.1,3.4 13.5,5c20.7,7.3 31.2,11.1 33,12c1.1,0.5 4,1.6 6.5,2.4c2.5,0.8 7.7,2.7 11.5,4.1c3.9,1.5 8.5,3.1 10.3,3.7l3.2,1.1l0,119.4l0,119.3l-46.5,0l-46.5,0l0,-135.3c0,-74.5 0.3,-135.7 0.7,-136c0.8,-0.9 1,-0.9 3.1,0.2z"/>
  <path fill="#f59e0b" id="svg_7" d="m1033.30002,712.79999l-90.3,0.2l0,75l0,75l62.8,0.2l62.7,0.3l0.3,17.9c0.2,12.3 -0.1,18.3 -0.9,19.2c-1,1.2 -11.6,1.4 -62.9,1.4c-33.9,0 -61.9,0.2 -62.1,0.4c-0.2,0.2 -0.3,12.6 -0.1,27.5l0.3,27.1l91.4,0l91.5,0l-0.2,-74.3l-0.3,-74.2l-62.5,-0.5l-62.5,-0.5l-0.3,-19.7l-0.2,-19.8l62.7,-0.2l62.8,-0.3l0.3,-27.1c0.2,-21.3 0,-27.3 -1,-27.5c-0.7,-0.2 -41.9,-0.3 -91.5,-0.1z"/>
  <path fill="#f59e0b" id="svg_8" d="m1258.30002,712.79999l-94.3,0.2l0,27.5l0,27.5l33.5,0l33.5,0l0,94.5l0,94.5l27.8,-0.2l27.7,-0.3l0.5,-94l0.5,-94l33,-0.5l33,-0.5l0.3,-26.9c0.1,-14.8 -0.1,-27.2 -0.5,-27.5c-0.5,-0.3 -43.2,-0.5 -95,-0.3z"/>
  <path fill="#f59e0b" id="svg_9" d="m738.00001,834.99999l0,122l83.5,0l83.5,0l0,-26.8c0,-14.7 -0.4,-27.2 -0.8,-27.7c-0.4,-0.6 -20,-1 -55.2,-1l-54.5,0l0,-19l0,-19l55,-0.5l55,-0.5l0,-27l0,-27l-55.2,-0.3l-55.3,-0.2l0,-20l0,-20l55.3,-0.2l55.2,-0.3l0,-27l0,-27l-83.2,-0.3l-83.3,-0.2l0,122z"/>
  <path id="svg_10" d="m162.5,1002.5c-3.1,0.9 -6,2.5 -7.7,4.4c-1.4,1.6 -2.8,2.8 -3,2.5c-0.3,-0.2 -0.5,0.2 -0.6,0.8c-0.1,1.3 -2,9 -2.9,11.8c-0.2,0.8 -0.3,10.9 -0.2,22.5c0.2,26.1 0.3,27.9 0.9,28.5c0.3,0.3 1.8,2.6 3.3,5.2c3.2,5.5 5.8,7.1 14.4,8.8c5.6,1.1 31.9,0.9 37.8,-0.3c9.8,-2 14.5,-9.8 14.5,-24.3l0,-5.4l-5.7,0l-5.8,0l-0.1,6.6c-0.2,11.8 -4.1,14.5 -21.9,15.1c-11.6,0.5 -12.2,0.4 -17.5,-2.4c-8.3,-4.3 -8.5,-4.9 -8.4,-30.8c0,-12.1 0.3,-23.4 0.6,-25c0.3,-1.7 0.6,-3.3 0.7,-3.7c0,-0.4 1.6,-1.5 3.4,-2.4c1.7,-0.9 3.5,-2.2 3.9,-2.8c1.2,-1.8 28.6,-1.5 32.2,0.4c4,2 6.8,7.1 7,12.5l0.1,4.3l5.4,0.4c6.3,0.4 6.6,0.1 5.9,-8.6c-0.4,-4.3 -1.3,-7.5 -3,-10.2c-3.4,-5.3 -4.8,-6.3 -11,-8c-7,-1.8 -35.3,-1.8 -42.3,0.1z"/>
  <path id="svg_11" d="m266.5,1001.8l-9,0.3l-3.4,8.7c-1.9,4.8 -4.8,12.3 -6.4,16.7c-1.7,4.4 -3.6,8.3 -4.2,8.7c-0.5,0.4 -0.7,0.8 -0.3,0.8c0.7,0 -2.4,9.3 -5.6,16.3c-0.8,1.7 -3.8,9.5 -6.6,17.2c-2.9,7.7 -5.8,14.6 -6.3,15.3c-0.8,1 0.3,1.2 5.8,1l6.7,-0.3l3.4,-9.4c1.9,-5.2 3.9,-10 4.5,-10.8c0.9,-1 5.9,-1.3 22.1,-1.3l20.9,0l3.5,7.7c2,4.3 3.6,8.6 3.7,9.5c0.1,1 0.5,1.8 0.9,1.8c0.4,0 0.8,0.7 0.8,1.5c0,1.2 1.3,1.5 6,1.5c3.3,0 6,-0.2 6,-0.4c0,-0.2 -1.4,-3.6 -3,-7.7c-1.7,-4.1 -3.1,-7.6 -3.2,-7.9c-0.1,-0.7 -0.7,-2.3 -7.3,-19.2c-9,-22.8 -10.2,-25.8 -13.4,-34.2c-1.7,-4.3 -2.8,-8.3 -2.4,-8.9c0.3,-0.6 0.1,-0.7 -0.5,-0.3c-0.7,0.4 -1.2,0.1 -1.2,-0.6c-0.1,-0.7 -0.6,-2.4 -1.3,-3.8c-1.2,-2.4 -1.5,-2.5 -10.2,-2.2zm3,14.4c7.4,18.2 15.3,39.3 14.9,40c-0.3,0.4 -8.4,0.8 -18,0.8c-13.8,0 -17.4,-0.3 -17.4,-1.3c0,-0.8 1.8,-5.8 4.1,-11.3c2.2,-5.4 4.5,-11.4 5,-13.2c0.6,-1.7 1.5,-3.2 2.1,-3.2c0.6,0 0.9,-0.3 0.5,-0.6c-0.5,-0.6 3.3,-11.9 4.8,-14.5c1.2,-1.8 2.3,-0.8 4,3.3z"/>
  <path id="svg_12" d="m344.00001,1002l-24.5,0.5l0,42.3l0,42.2l5.7,0l5.8,0l0.2,-16.3l0.3,-16.2l20.5,-0.6c23.9,-0.6 26.7,-1.4 30.5,-8.7c1.9,-3.5 2.3,-6 2.4,-14.5c0.3,-17.7 -3.2,-26.5 -10.9,-27.4c-1.8,-0.2 -3.8,-0.7 -4.4,-1.1c-0.6,-0.4 -12.1,-0.5 -25.6,-0.2zm23,10.3c5.1,1.8 6,4.5 5.8,17.1c-0.3,10.7 -0.4,10.9 -3.1,13c-2.6,1.9 -4.1,2.1 -20.5,2.1l-17.7,0l-0.2,-16c-0.1,-8.7 0.1,-16.3 0.3,-16.7c0.8,-1.3 31.5,-0.8 35.4,0.5z"/>
  <path id="svg_13" d="m404.50001,1002l-5,0.5l0,42.3l0,42.2l5.8,0l5.7,0l0,-42.4c0,-23.4 -0.3,-42.6 -0.7,-42.8c-0.5,-0.2 -3,-0.1 -5.8,0.2z"/>
  <path id="svg_14" d="m419.90001,1001.5c0,0 -0.1,2.2 -0.2,4.8l-0.1,4.9l13.9,0.1l14,0.2l0,37.8l0,37.7l5.8,0l5.7,0l0.1,-36.5c0.1,-20.1 0.2,-37.1 0.3,-37.8c0.1,-0.9 3.6,-1.2 13.6,-1.4c7.4,-0.1 13.6,-0.4 13.8,-0.7c0.1,-0.3 0.2,-2.5 0.2,-4.9l0,-4.2l-33.5,0c-18.4,0 -33.5,0 -33.6,0z"/>
  <path id="svg_15" d="m517.90001,1004c-1.2,3.4 -3.8,9.7 -5.6,14c-0.8,1.9 -3.2,7.9 -5.3,13.5c-2.1,5.5 -4.4,11.3 -5,13c-0.7,1.6 -1.4,3.5 -1.5,4.1c-0.2,0.5 -2.3,6.2 -4.8,12.5c-6.1,15.3 -9.8,25.2 -9.5,25.4c1.1,0.9 11,1 11.6,0.1c0.4,-0.6 2.3,-5.6 4.3,-11.1l3.6,-10l21.4,-0.2c24.9,-0.3 22.2,-1.6 27.9,12.9l3.5,8.8l5.7,0l5.7,0l-2.3,-6.3c-1.3,-3.4 -3.5,-9.2 -4.9,-12.8c-1.4,-3.7 -2.3,-6.9 -2,-7.3c0.4,-0.3 0.1,-0.6 -0.5,-0.6c-0.7,0 -1.2,-0.5 -1.2,-1c0,-0.6 -3.6,-10.1 -8,-21.2c-4.4,-11 -7.7,-20.4 -7.5,-20.9c0.3,-0.4 0.1,-0.9 -0.4,-1.1c-0.5,-0.1 -2,-3.2 -3.4,-6.8l-2.4,-6.5l-9.3,-0.5c-9.2,-0.5 -9.3,-0.5 -10.1,2zm18.1,26.2c3.9,10.1 7.7,19.8 8.5,21.6c0.8,1.8 1.5,3.7 1.5,4.2c0,0.6 -7.1,1 -18,1c-14.1,0 -18,-0.3 -18,-1.3c0,-1.2 5.3,-14.8 8.8,-22.7c0.8,-1.9 1.6,-3.7 1.7,-4c1.7,-6.6 6.3,-17 7.4,-17c0.5,0 4.2,8.2 8.1,18.2z"/>
  <path id="svg_16" d="m585.00001,1001.7l-4.5,0.4l0.3,41.6c0.1,24.8 -0.1,42 -0.7,42.7c-0.7,0.8 7.2,1 30.4,0.8l31.3,-0.3l0.4,-4.4c0.2,-2.6 -0.1,-4.5 -0.7,-4.5c-0.5,0 -12,-0.2 -25.5,-0.3l-24.5,-0.2l-0.3,-38.3c-0.1,-21 -0.6,-38.1 -1,-38c-0.4,0.1 -2.7,0.3 -5.2,0.5z"/>
  <path id="svg_17" d="m695.00001,1001.7c-0.3,7.9 0.1,85.3 0.5,85.3c0.3,0 2.7,0 5.5,0l5,0l0.2,-16.3l0.3,-16.2l17.5,-0.3c9.6,-0.1 18.4,0 19.5,0.3c3.4,0.9 6.7,4.4 7,7.3c0.1,1.5 0.6,3.5 1,4.4c0.4,1 0.5,6 0.3,11.3l-0.3,9.5l5.8,0l5.7,0l0,-13.8c0,-15.1 -1,-18.8 -5.6,-21.9c-2.4,-1.6 -2.5,-1.6 -0.4,-3c4.6,-3.2 6,-8.4 6,-21.4c0,-10.3 -0.3,-12.9 -2,-16.5c-3.7,-7.5 -5.2,-7.8 -37.8,-8.4c-15.5,-0.3 -28.2,-0.4 -28.2,-0.3zm45.4,10.2c0.3,0.5 1.5,0.7 2.5,0.4c2.2,-0.6 5.7,2.1 7.5,5.7c1.6,3.3 2,13.7 0.7,18.6c-0.7,2.8 -2,4.5 -4.3,5.9c-3,1.8 -5.1,2 -21.8,2l-18.5,0l-0.3,-15.5c-0.1,-8.5 0,-16 0.2,-16.7c0.4,-1 4.5,-1.3 17,-1.3c9.1,0 16.7,0.4 17,0.9z"/>
  <path id="svg_18" d="m812.00001,1001.8l-31.5,0.2l0.3,41.6c0.1,24.9 -0.1,42.1 -0.7,42.8c-0.7,0.8 7.7,1 32.3,0.8l33.2,-0.3l-0.6,-4.5l-0.5,-4.5l-26,-0.2l-26,-0.2l0,-15l0,-15l25.1,-0.3l25.2,-0.2l0.4,-4l0.4,-4l-25.9,0l-25.8,0l0.3,-13.8l0.3,-13.7l26.3,-0.3l26.2,-0.2l0,-4.5c0,-2.4 -0.3,-4.5 -0.7,-4.7c-0.5,-0.2 -15,-0.2 -32.3,0z"/>
  <path id="svg_19" d="m881.90001,1004c-1.3,3.4 -3.8,9.8 -5.6,14c-0.8,1.9 -3.2,7.9 -5.3,13.5c-2.1,5.5 -4.4,11.3 -5.1,13c-0.7,1.6 -1.3,3.2 -1.4,3.5c-0.9,3.7 -2.9,8 -3.6,8c-0.6,0 -0.8,0.4 -0.5,0.8c0.3,0.5 -1.9,7.3 -4.9,15.1c-3,7.8 -5.5,14.4 -5.5,14.7c0,0.2 2.7,0.4 5.9,0.4l6,0l2.2,-5.8c1.2,-3.1 3,-8 3.9,-10.7l1.7,-5l21.5,-0.3l21.5,-0.2l1.7,2.5c0.9,1.4 1.4,3 1.1,3.4c-0.3,0.5 -0.1,1.1 0.3,1.3c0.5,0.1 2.2,3.7 3.9,7.7l3.1,7.5l5.4,-0.3c2.9,-0.1 5.4,-0.3 5.5,-0.4c0.2,-0.2 -15.2,-40.1 -20,-52.1c-2,-4.9 -3.4,-9.2 -3.2,-9.6c0.3,-0.5 0.1,-1 -0.3,-1.2c-0.5,-0.1 -2.8,-5.3 -5.1,-11.3l-4.2,-11l-9.1,0c-8.7,0 -9.1,0.1 -9.9,2.5zm12.4,11.2c0.8,2.4 4.5,11.9 8.2,21.3c3.7,9.3 6.9,17.8 7.2,18.7c0.5,1.7 -0.8,1.8 -17.6,1.8c-13.9,0 -18.1,-0.3 -18.1,-1.3c0,-0.6 1.6,-5.3 3.6,-10.2c6.4,-15.9 7.5,-18.9 8.5,-22.3c0.6,-1.7 1.3,-3.2 1.7,-3.2c0.4,0 0.8,-0.8 0.9,-1.8c0.2,-2.8 2.2,-7.2 3.2,-7.2c0.5,0 1.6,1.9 2.4,4.2z"/>
  <path id="svg_20" d="m949.00001,1001.9l-4.5,0.6l0,42.3l0,42.2l29.8,0c16.3,0 30,0 30.5,0c0.4,0 0.7,-2.1 0.7,-4.6l0,-4.6l-25,-0.1l-25,-0.2l-0.3,-38.3c-0.1,-21 -0.6,-38.1 -1,-38c-0.4,0 -2.7,0.4 -5.2,0.7z"/>
  <path id="svg_21" d="m1006.00001,1006.5l0,4.4l13.8,0.3l13.7,0.3l0.3,37.7l0.2,37.8l5.8,0l5.7,0l0,-37.7l0,-37.8l13.1,-0.3l13.1,-0.3l4.5,5.3c6.6,7.8 12.6,15.2 20.1,25.2l6.8,8.8l-0.1,18.7c-0.1,10.2 0.1,18.5 0.4,18.3c0.3,-0.1 2.9,-0.2 5.6,-0.2l5,0l0,-18.9l0,-18.9l3.3,-4c5.6,-7 26.9,-34.1 31,-39.5l2.8,-3.7l-7.1,0c-6.6,0 -7.1,0.2 -8.8,2.8c-0.9,1.5 -5.1,7.2 -9.2,12.6c-4.1,5.4 -8.5,11.3 -9.8,13c-1.3,1.7 -2.8,3 -3.3,2.8c-0.6,-0.1 -0.8,0.2 -0.5,0.7c0.7,1 -3.9,7 -4.7,6.1c-0.2,-0.3 -5.9,-7.9 -12.7,-17c-6.7,-9.1 -13.1,-17.5 -14.3,-18.8l-2,-2.2l-36.4,0l-36.3,0l0,4.5z"/>
  <path id="svg_22" d="m1262.30002,1027.8l-3.3,0.3l0,25.2c-0.1,22.1 -0.2,25 -1.5,23.3c-0.8,-1 -1.2,-2.4 -0.8,-3c0.3,-0.6 0.2,-0.8 -0.2,-0.3c-0.5,0.4 -1.9,-1.2 -3.3,-3.5c-1.4,-2.4 -4.7,-7.8 -7.3,-12c-2.7,-4.2 -4.9,-8 -4.9,-8.3c0,-0.3 -0.5,-1.1 -1.1,-1.8c-0.6,-0.7 -3.7,-5.4 -6.9,-10.5l-5.9,-9.2l-6.3,0l-6.3,0l0.2,29.5c0.1,16.2 0.5,29.5 0.8,29.5c0.3,0 2.1,0 4,0l3.5,0l0,-24c0,-14.3 0.4,-24 0.9,-24c0.9,0 11.4,15.9 15.1,22.7c0.8,1.5 2.6,4.4 4,6.3c1.4,1.9 3.1,4.4 3.7,5.5c0.7,1.1 2.9,4.6 4.9,7.7l3.7,5.8l5.8,0l5.8,0l0.3,-29.5c0.2,-19 -0.1,-29.6 -0.7,-29.8c-0.5,-0.1 -2.5,-0.1 -4.2,0.1z"/>
  <path id="svg_23" d="m1292.50002,1027.4c-0.5,0.2 -2.2,0.7 -3.7,1c-1.5,0.4 -3.7,1.6 -4.8,2.8c-4.4,4.8 -4.8,6.7 -4.6,26.5c0.1,17 0.3,19.1 2.1,22.3c3.8,6.4 7.1,7.5 23,7.5c11.4,0 14.6,-0.4 17.2,-1.8c5.8,-3.1 6.8,-5 7.1,-12.7l0.3,-7l-4.4,0c-4,0 -4.5,0.2 -4,2c0.3,1.1 0.2,3.5 -0.1,5.4c-1,5.5 -5.4,7.6 -15.6,7.6c-8.9,0 -14.3,-1.7 -16.1,-5.2c-1.6,-3 -2.3,-23.4 -1.1,-31.2c0.7,-4.4 1.7,-7.3 2.9,-8.1c3.2,-2.4 10.9,-3.7 17.7,-3c7.9,0.9 11.2,3.4 12.2,9.3c0.6,3.7 0.9,4 4,4.4c1.9,0.2 3.7,0.2 3.9,-0.1c1.2,-1.1 0.2,-9.9 -1.4,-12.5c-3.6,-6.2 -5.9,-7 -20.4,-7.3c-7.3,-0.1 -13.6,-0.1 -14.2,0.1z"/>
  <path id="svg_24" d="m1192.70002,1057.5c0.1,16.2 0.5,29.5 0.8,29.5c0.3,0 2.1,0 4,0l3.5,0l0,-29.5l0,-29.5l-4.2,0l-4.3,0l0.2,29.5z"/>
  <path id="svg_25" d="m1337.90002,1077.7c-0.4,1.6 0,9.3 0.5,9.3c0.3,0 2.2,0 4.1,0c3.5,0 3.5,0 3.5,-4.4l0,-4.4l-4,-0.4c-2.2,-0.2 -4,-0.2 -4.1,-0.1z"/>
  <path id="svg_27" d="m1033.80002,1148.7c-0.9,0.2 -1.9,1.5 -2.2,2.8c-0.3,1.3 -1.1,3.7 -1.8,5.2c-0.6,1.5 -1.2,3.2 -1.3,3.8c-0.4,1.5 -5,14.9 -8.3,24.2c-1.7,4.6 -2.8,8.3 -2.5,8.3c1.3,0 -3.1,3.4 -4.6,3.5c-1.6,0.1 -2.1,0.7 -2.1,2.5c0,0.6 4,1 10,1c8.2,0 10,-0.3 10,-1.5c0,-0.9 -0.9,-1.5 -2.4,-1.5c-4.5,0 -5.5,-4.3 -2.7,-11.3c0.9,-2.4 1.6,-2.7 5.6,-2.7l4.6,0l2.9,6.2c3,6.4 2.8,7.7 -1.2,7.8c-1,0 -1.8,0.7 -1.8,1.5c0,1.2 1.9,1.5 11.5,1.5c9.2,0 11.5,-0.3 11.5,-1.4c0,-0.8 -1.3,-1.9 -3,-2.5c-1.6,-0.5 -3,-1.5 -3,-2.1c0,-1 -4.9,-14.1 -13.7,-36.5c-1.9,-5 -3.6,-9 -3.6,-9.1c-0.1,0 -0.9,0.1 -1.9,0.3zm0.2,26.3c1.1,2.3 1.8,4.5 1.5,5c-0.7,1.1 -5.8,1.4 -6.7,0.4c-0.6,-0.6 2,-9.4 2.8,-9.4c0.2,0 1.3,1.8 2.4,4z"/>
  <path id="svg_28" d="m445.00001,1150.3c-6.2,2.1 -9.8,4.9 -12.2,9.6c-2,3.9 -2.3,5.9 -2.3,15.5c0,10.4 0.2,11.4 2.8,15.8c3.1,5.1 5.3,6.9 11.2,8.8c8.6,2.9 22.7,-0.8 25.3,-6.5c0.6,-1.4 1.6,-2.5 2.2,-2.5c0.6,0 0.9,-0.4 0.6,-0.8c-0.3,-0.5 0.2,-2.8 1.1,-5.3c1.8,-5.3 1.3,-17.5 -1.1,-23c-2.6,-6.1 -8.9,-11.5 -14.3,-12.3c-6.2,-0.8 -9.1,-0.7 -13.3,0.7zm10.7,3.9c3.3,3.7 4.3,6.3 5.3,14.1c1,8.4 -0.1,18.7 -2.6,24c-1.9,4 -5.5,6.4 -7.6,5.1c-0.7,-0.5 -1.6,-0.9 -2.1,-0.9c-3,0 -6.2,-14.8 -5.4,-25.3c0.7,-10 2.6,-15.2 6.3,-17.3c3.8,-2.3 3.7,-2.3 6.1,0.3z"/>
  <path id="svg_29" d="m1174.30002,1150c-0.2,0.3 -0.8,0.5 -1.2,0.5c-0.5,0 -3.1,1.5 -5.8,3.4c-7.6,5.2 -9.8,10.2 -9.8,22.1c0,8.6 0.3,9.9 2.6,13.5c6.3,9.7 18.4,13.8 30.1,10.3c3.4,-1 4.1,-0.9 4.9,0.3c0.4,0.9 1.8,1.5 3.1,1.4c2.2,-0.2 2.3,-0.6 2.6,-9.6c0.2,-8.9 0.4,-9.5 3,-11.6l2.7,-2.3l-10.2,0c-6.2,0 -10.3,0.4 -10.3,1c0,0.5 0.6,1 1.3,1c2.7,0 4.7,3.6 4.7,8.2c0,4 -0.4,4.9 -3.2,7c-4.5,3.4 -9.3,3.1 -12.5,-0.8c-4.6,-5.5 -5.6,-8.5 -5.7,-16.8c-0.1,-10.6 0.8,-14.6 4.5,-19.2c4.7,-5.9 6.4,-6.8 10.2,-5.3c5.5,2.1 8,5.4 10.1,13.4c0.9,3.3 1.5,4 3.6,3.9l2.5,0l0,-10.1c0,-9.8 -0.1,-10.2 -2.3,-10.6c-1.3,-0.2 -3,0.2 -3.7,1c-0.9,0.8 -2,1.1 -2.7,0.7c-1.5,-1 -17.7,-2.2 -18.5,-1.4z"/>
  <path id="svg_30" d="m136.4,1150.9c-0.9,0.9 -0.3,2.1 1,2.1c0.8,0 2.4,1.2 3.6,2.7c2,2.6 2.1,3.6 1.8,20.9c-0.2,10 -0.6,18.6 -1.1,19c-0.4,0.4 -1.7,0.8 -3,0.9c-1.2,0.1 -2.1,0.5 -1.9,0.8c0.1,0.4 0.2,1.1 0.2,1.7c0,0.6 5.8,1 15.3,1c27.1,0 35.3,-4.5 31.5,-17.2c-1.2,-4.2 -3.7,-6 -9.7,-7.3c-3.3,-0.7 -3.4,-0.8 -1.6,-2.1c1.1,-0.8 2.4,-1.3 2.9,-1.1c0.6,0.2 2.1,-0.9 3.3,-2.4c2.7,-3.2 3.2,-8.3 1.4,-12.8c-2.1,-4.9 -6.9,-6 -26.4,-6.3c-9.3,-0.2 -17.1,-0.1 -17.3,0.1zm26.2,3.4c0.8,-0.3 1.4,0 1.4,0.7c0,0.6 0.4,0.9 0.9,0.5c1.7,-1 4.1,3.8 4.1,8.2c0,3.4 -0.5,4.5 -2.9,6.2c-1.5,1.1 -4.8,2.2 -7.2,2.3l-4.4,0.3l0,-8.5c0,-8 0.1,-8.5 2.5,-9.7c1.4,-0.7 2.8,-0.9 3.4,-0.3c0.4,0.4 1.5,0.6 2.2,0.3zm2.4,23c2.8,1.3 5.6,3.7 4.4,3.7c-0.5,0 -0.3,0.5 0.4,1.2c0.7,0.7 1.2,3.1 1.2,5.3c0,5.8 -3.5,9 -9.5,8.9c-6.8,-0.1 -7.5,-1.3 -7.5,-11.4c0,-4.7 0.3,-8.9 0.6,-9.3c0.8,-0.8 7.4,0.2 10.4,1.6z"/>
  <path id="svg_31" d="m282.3,1151.3c-0.2,0.4 0.7,1.1 2.1,1.7c1.4,0.5 2.9,1.8 3.5,2.8c0.6,1.1 1,9.6 1,19.8c0,15 -0.3,18.1 -1.6,19.6c-0.9,1 -2.2,1.8 -3,1.8c-0.7,0 -1.3,0.7 -1.3,1.5c0,2.2 22.5,2.2 23.3,0.1c0.4,-1 -0.2,-1.6 -1.6,-1.8c-1.2,-0.2 -2.7,-1.4 -3.4,-2.8c-1.2,-2.4 -1.9,-18 -0.8,-18c0.3,0 2.1,0.6 4,1.4c2.6,1.1 3.6,2.3 4.4,5.3c0.6,2.1 1.7,6.4 2.6,9.5c1.6,5.8 3.5,8.7 6.1,8.9c7.3,0.5 11.1,-1 11.9,-4.8c0.4,-1.5 1.1,-3.6 1.6,-4.6c0.7,-1.4 0.5,-1.9 -1.3,-2.6c-2.9,-1.1 -3.8,-0.6 -3.8,2.3c0,7.8 -5.6,1.1 -6.5,-7.7c-0.1,-0.9 -1.4,-3 -2.9,-4.6c-1.6,-1.6 -2.5,-3.4 -2.2,-4c0.4,-0.5 2.7,-1.3 5.1,-1.7c3.3,-0.4 5.2,-1.4 7,-3.6c5,-6 2.1,-15.7 -5.3,-17.4c-1.5,-0.4 -3,-0.9 -3.5,-1.1c-1.4,-0.8 -34.9,-0.8 -35.4,0zm28.1,3.1c4,1.7 4.8,2.8 5.3,7.4c0.6,5.6 -5.4,10.2 -13.4,10.2c-2.2,0 -2.3,-0.4 -2.3,-7.3c0,-10.9 2.6,-13.6 10.4,-10.3z"/>
  <path id="svg_32" d="m584.80001,1150.8c-6,0.1 -10.8,0.6 -10.8,1c0,0.4 1.4,1.3 3,2l3,1.4l0,19.2c0,17.4 -0.2,19.5 -1.8,20.9c-1,1 -2.4,1.7 -3,1.7c-0.7,0 -1.2,0.7 -1.2,1.5c0,1.2 2,1.5 12,1.5c9.1,0 12,-0.3 12,-1.3c0,-0.7 -1.3,-1.8 -3,-2.4l-3,-1.1l0,-8.4l0,-8.3l2,2.5c1.1,1.4 2,2.8 2,3.2c0,0.5 1.6,3 3.5,5.7c3.7,5.2 4.4,7.4 2.1,6.9c-1.4,-0.3 -1.6,0 -1.6,2.2c0,0.6 4.3,1 11,1c12.5,0 14,-1.3 6.5,-5.6c-1.1,-0.6 -5,-6 -8.8,-11.9c-3.7,-6 -7.4,-11.6 -8.2,-12.6c-1.4,-1.4 -0.9,-2.2 5.5,-7.5c7.1,-5.9 9.9,-7.8 13.3,-8.8c0.9,-0.3 1.7,-1 1.7,-1.6c0,-0.6 -3.7,-1 -9.8,-1c-7.8,0 -9.9,0.3 -9.9,1.4c0,0.8 0.6,1.2 1.2,1c0.7,-0.3 1.7,0.1 2.4,0.9c0.9,1.2 0.3,2.3 -3.1,5.6c-2.3,2.3 -5.4,5.1 -7,6.2l-2.8,2l0,-6.6c0,-6.5 0.1,-6.6 3,-7.7c1.7,-0.5 2.9,-1.5 2.7,-2.1c-0.4,-1.3 0,-1.3 -12.9,-0.9z"/>
  <path id="svg_33" d="m719.30001,1151.2c-0.7,1.2 0.7,2.9 1.8,2.2c0.6,-0.3 1.9,0.3 3,1.5c1.7,1.8 1.9,3.6 1.9,20.4c0,16.5 -0.2,18.6 -1.8,20c-1,1 -2.4,1.7 -3,1.7c-0.7,0 -1.2,0.7 -1.2,1.5c0,1.3 3.2,1.5 22.9,1.5l23,0l0.6,-5.8c0.4,-3.1 1,-7.2 1.5,-9c0.8,-3 0.7,-3.2 -1.6,-3.2c-1.3,0 -2.7,-0.1 -3.1,-0.3c-0.4,-0.1 -1.5,2 -2.4,4.7c-2.8,7.6 -7.3,10.6 -16,10.6c-5.7,0 -6.9,-2.2 -6.9,-12.3c0,-8.4 0.1,-8.7 2.3,-8.7c2.9,0.1 6.4,3.1 7.2,6.3c0.7,2.7 4.3,4.4 5.1,2.3c0.3,-0.7 0.3,-5.9 0.2,-11.6c-0.3,-10.4 -0.3,-10.4 -2.8,-10.4c-1.5,0 -2.5,0.6 -2.6,1.4c-0.4,4.9 -2.5,7.1 -7,7.4c-2.1,0.1 -2.2,-0.2 -2,-7.8c0.1,-7.6 0.2,-8.1 2.8,-9.5c2.3,-1.3 3.4,-1.4 7.5,-0.3c5.9,1.6 7.7,3.2 10.5,9.3c1.7,3.9 2.7,4.9 4.5,4.9c2.4,0 2.4,0 1.7,-8.3c-0.3,-4.5 -0.7,-8.3 -0.8,-8.4c-0.5,-0.6 -44.9,-0.7 -45.3,-0.1z"/>
  <path id="svg_34" d="m881.50001,1151c-11.2,0.3 -16.3,0.8 -15,1.4c5.1,2.3 5.5,3.9 5.5,23.4l0,18.3l-3,1.7c-5.7,3.3 -3.9,4.2 8.5,4.2c9.6,0 11.5,-0.3 11.5,-1.5c0,-0.8 -0.6,-1.5 -1.4,-1.5c-2.9,0 -4.6,-4.7 -4.6,-13c0,-8.5 0.3,-8.9 4.9,-6.6c2.9,1.6 4.2,4.7 6.1,14.8c1.3,6.6 2.2,7.5 8.1,8.6c7.2,1.3 10.9,-1.4 10.9,-7.9c0,-2.8 -0.5,-3.8 -2,-4.2c-1.7,-0.4 -2,0 -2,2.3c0,1.6 -0.5,3.2 -1.2,3.6c-1.6,1 -3.3,-1.7 -4.8,-8.1c-0.9,-3.7 -2.3,-6.6 -4.3,-8.5l-2.9,-2.8l5.7,-1.7c7.4,-2.1 10.5,-5.4 10.5,-11c0,-3.2 -0.6,-4.7 -2.7,-6.7c-4.9,-4.6 -9.1,-5.4 -27.8,-4.8zm11,3c3.5,1.3 6.4,4.9 6.5,7.8c0,3.8 -3.8,7.9 -8.6,9.2c-6.6,1.9 -7.4,1.2 -7.4,-6.7c0,-10.1 2.6,-12.9 9.5,-10.3z"/>
  <path id="svg_35" d="m1324.00002,1151c-14.6,0.3 -21.8,0.8 -20.5,1.4c5.5,2.5 5.5,2.5 5.5,22.6c0,16.8 -0.2,18.9 -1.8,20.3c-1,1 -2.4,1.7 -3,1.7c-0.7,0 -1.2,0.7 -1.2,1.5c0,1.3 3.2,1.5 22.9,1.5l23,0l0.6,-5.8c0.3,-3.1 0.9,-7.1 1.4,-8.9c1.1,-3.9 0.8,-4.2 -3.1,-3.4c-2.8,0.6 -3.4,1.3 -4.5,5c-0.7,2.4 -1.8,5 -2.4,5.8c-3.4,4 -15.3,5.8 -18.3,2.7c-1.2,-1.2 -1.6,-3.7 -1.6,-10.5l0,-9l2.8,0.3c1.5,0.2 2.6,0.8 2.5,1.5c-0.2,0.7 0.4,1 1.2,0.7c1.5,-0.6 4,4 3,5.6c-0.7,1.1 1.5,1.8 3.8,1.2c1.5,-0.4 1.7,-1.8 1.7,-11.2c0,-10.1 -0.1,-10.8 -2.1,-11.3c-1.6,-0.4 -2.4,0.1 -3.5,2.8c-1.5,3.7 -4.8,6.5 -7.7,6.5c-1.6,0 -1.7,-0.9 -1.5,-8.8l0.3,-8.7l3.8,-0.9c7.4,-1.9 16.6,4.5 17.2,11.9c0.1,1.5 1,2.1 3.4,2.3l3.2,0.3l-0.6,-8.3c-0.4,-4.6 -1,-8.5 -1.4,-8.8c-0.3,-0.3 -10.7,-0.3 -23.1,0z"/>
  <line stroke="#000000" fill="none" id="svg_36" y2="1117.83339" x2="1350.50112" y1="1117.83339" x1="132.16661"/>
 </g>
</svg>